<svg width="24" height="24" viewBox="0 0 24 24" fill="none" xmlns="http://www.w3.org/2000/svg">
<mask id="path-2-inside-1_1755_2932" fill="white">
<path fill-rule="evenodd" clip-rule="evenodd" d="M2.06319 9.62202C2 10.1424 2 10.7616 2 12C2 13.2384 2 13.8576 2.06319 14.378C2.54384 18.3365 5.66351 21.4562 9.62202 21.9368C10.1424 22 10.7616 22 12 22C13.2384 22 13.8576 22 14.378 21.9368C18.3365 21.4562 21.4562 18.3365 21.9368 14.378C22 13.8576 22 13.2384 22 12C22 10.7616 22 10.1424 21.9368 9.62202C21.4562 5.66351 18.3365 2.54384 14.378 2.06319C13.8576 2 13.2384 2 12 2C10.7616 2 10.1424 2 9.62202 2.06319C5.66351 2.54384 2.54384 5.66351 2.06319 9.62202ZM12 6.5C12.4602 6.5 12.8333 6.8731 12.8333 7.33333V11.1667H16.6667C17.1269 11.1667 17.5 11.5398 17.5 12C17.5 12.4602 17.1269 12.8333 16.6667 12.8333H12.8333V16.6667C12.8333 17.1269 12.4602 17.5 12 17.5C11.5398 17.5 11.1667 17.1269 11.1667 16.6667V12.8333H7.33333C6.8731 12.8333 6.5 12.4602 6.5 12C6.5 11.5398 6.8731 11.1667 7.33333 11.1667H11.1667V7.33333C11.1667 6.8731 11.5398 6.5 12 6.5Z"/>
</mask>
<path fill-rule="evenodd" clip-rule="evenodd" d="M2.06319 9.62202C2 10.1424 2 10.7616 2 12C2 13.2384 2 13.8576 2.06319 14.378C2.54384 18.3365 5.66351 21.4562 9.62202 21.9368C10.1424 22 10.7616 22 12 22C13.2384 22 13.8576 22 14.378 21.9368C18.3365 21.4562 21.4562 18.3365 21.9368 14.378C22 13.8576 22 13.2384 22 12C22 10.7616 22 10.1424 21.9368 9.62202C21.4562 5.66351 18.3365 2.54384 14.378 2.06319C13.8576 2 13.2384 2 12 2C10.7616 2 10.1424 2 9.62202 2.06319C5.66351 2.54384 2.54384 5.66351 2.06319 9.62202ZM12 6.5C12.4602 6.5 12.8333 6.8731 12.8333 7.33333V11.1667H16.6667C17.1269 11.1667 17.5 11.5398 17.5 12C17.5 12.4602 17.1269 12.8333 16.6667 12.8333H12.8333V16.6667C12.8333 17.1269 12.4602 17.5 12 17.5C11.5398 17.5 11.1667 17.1269 11.1667 16.6667V12.8333H7.33333C6.8731 12.8333 6.5 12.4602 6.5 12C6.5 11.5398 6.8731 11.1667 7.33333 11.1667H11.1667V7.33333C11.1667 6.8731 11.5398 6.5 12 6.5Z" fill="url(#paint0_linear_1755_2932)"/>
<path d="M2.06319 9.62202L3.3868 9.78273L2.06319 9.62202ZM2.06319 14.378L3.3868 14.2173V14.2173L2.06319 14.378ZM9.62202 21.9368L9.78273 20.6132H9.78273L9.62202 21.9368ZM14.378 21.9368L14.2173 20.6132H14.2173L14.378 21.9368ZM21.9368 14.378L20.6132 14.2173V14.2173L21.9368 14.378ZM21.9368 9.62202L20.6132 9.78273V9.78273L21.9368 9.62202ZM14.378 2.06319L14.2173 3.3868H14.2173L14.378 2.06319ZM9.62202 2.06319L9.78273 3.3868L9.62202 2.06319ZM12.8333 11.1667H11.5V12.5H12.8333V11.1667ZM12.8333 12.8333V11.5H11.5V12.8333H12.8333ZM11.1667 12.8333H12.5V11.5H11.1667V12.8333ZM11.1667 11.1667V12.5H12.5V11.1667H11.1667ZM3.33333 12C3.33333 10.7225 3.33578 10.2029 3.3868 9.78273L0.739578 9.4613C0.664216 10.082 0.666667 10.8007 0.666667 12H3.33333ZM3.3868 14.2173C3.33578 13.7971 3.33333 13.2775 3.33333 12H0.666667C0.666667 13.1993 0.664216 13.918 0.739578 14.5387L3.3868 14.2173ZM9.78273 20.6132C6.43323 20.2065 3.7935 17.5668 3.3868 14.2173L0.739578 14.5387C1.29417 19.1062 4.8938 22.7058 9.4613 23.2604L9.78273 20.6132ZM12 20.6667C10.7225 20.6667 10.2029 20.6642 9.78273 20.6132L9.4613 23.2604C10.082 23.3358 10.8007 23.3333 12 23.3333V20.6667ZM14.2173 20.6132C13.7971 20.6642 13.2775 20.6667 12 20.6667V23.3333C13.1993 23.3333 13.918 23.3358 14.5387 23.2604L14.2173 20.6132ZM20.6132 14.2173C20.2065 17.5668 17.5668 20.2065 14.2173 20.6132L14.5387 23.2604C19.1062 22.7058 22.7058 19.1062 23.2604 14.5387L20.6132 14.2173ZM20.6667 12C20.6667 13.2775 20.6642 13.7971 20.6132 14.2173L23.2604 14.5387C23.3358 13.918 23.3333 13.1993 23.3333 12H20.6667ZM20.6132 9.78273C20.6642 10.2029 20.6667 10.7225 20.6667 12H23.3333C23.3333 10.8007 23.3358 10.082 23.2604 9.4613L20.6132 9.78273ZM14.2173 3.3868C17.5668 3.7935 20.2065 6.43323 20.6132 9.78273L23.2604 9.4613C22.7058 4.8938 19.1062 1.29417 14.5387 0.739578L14.2173 3.3868ZM12 3.33333C13.2775 3.33333 13.7971 3.33578 14.2173 3.3868L14.5387 0.739578C13.918 0.664216 13.1993 0.666667 12 0.666667V3.33333ZM9.78273 3.3868C10.2029 3.33578 10.7225 3.33333 12 3.33333V0.666667C10.8007 0.666667 10.082 0.664216 9.4613 0.739578L9.78273 3.3868ZM3.3868 9.78273C3.7935 6.43323 6.43323 3.7935 9.78273 3.3868L9.4613 0.739578C4.8938 1.29417 1.29417 4.8938 0.739578 9.4613L3.3868 9.78273ZM14.1667 7.33333C14.1667 6.13672 13.1966 5.16667 12 5.16667V7.83333C11.7239 7.83333 11.5 7.60948 11.5 7.33333H14.1667ZM14.1667 11.1667V7.33333H11.5V11.1667H14.1667ZM16.6667 9.83333H12.8333V12.5H16.6667V9.83333ZM18.8333 12C18.8333 10.8034 17.8633 9.83333 16.6667 9.83333V12.5C16.3905 12.5 16.1667 12.2761 16.1667 12H18.8333ZM16.6667 14.1667C17.8633 14.1667 18.8333 13.1966 18.8333 12H16.1667C16.1667 11.7239 16.3905 11.5 16.6667 11.5V14.1667ZM12.8333 14.1667H16.6667V11.5H12.8333V14.1667ZM14.1667 16.6667V12.8333H11.5V16.6667H14.1667ZM12 18.8333C13.1966 18.8333 14.1667 17.8633 14.1667 16.6667H11.5C11.5 16.3905 11.7239 16.1667 12 16.1667V18.8333ZM9.83333 16.6667C9.83333 17.8633 10.8034 18.8333 12 18.8333V16.1667C12.2761 16.1667 12.5 16.3905 12.5 16.6667H9.83333ZM9.83333 12.8333V16.6667H12.5V12.8333H9.83333ZM7.33333 14.1667H11.1667V11.5H7.33333V14.1667ZM5.16667 12C5.16667 13.1966 6.13672 14.1667 7.33333 14.1667V11.5C7.60948 11.5 7.83333 11.7239 7.83333 12H5.16667ZM7.33333 9.83333C6.13672 9.83333 5.16667 10.8034 5.16667 12H7.83333C7.83333 12.2761 7.60947 12.5 7.33333 12.5V9.83333ZM11.1667 9.83333H7.33333V12.5H11.1667V9.83333ZM9.83333 7.33333V11.1667H12.5V7.33333H9.83333ZM12 5.16667C10.8034 5.16667 9.83333 6.13672 9.83333 7.33333H12.5C12.5 7.60947 12.2761 7.83333 12 7.83333V5.16667Z" fill="url(#paint1_linear_1755_2932)" mask="url(#path-2-inside-1_1755_2932)"/>
<defs>
<linearGradient id="paint0_linear_1755_2932" x1="0.92856" y1="-0.00463765" x2="12.9805" y2="27.2834" gradientUnits="userSpaceOnUse">
<stop stop-color="#08EDDF"/>
<stop offset="0.723958" stop-color="#8FEDA6"/>
<stop offset="1" stop-color="#CEED8B"/>
</linearGradient>
<linearGradient id="paint1_linear_1755_2932" x1="0.92856" y1="-0.00463765" x2="12.9805" y2="27.2834" gradientUnits="userSpaceOnUse">
<stop stop-color="#08EDDF"/>
<stop offset="0.723958" stop-color="#8FEDA6"/>
<stop offset="1" stop-color="#CEED8B"/>
</linearGradient>
</defs>
</svg>
