<svg width="24" height="24" viewBox="0 0 24 24" fill="none" xmlns="http://www.w3.org/2000/svg">
<path d="M17.6034 18.5546C17.4547 18.3418 17.3131 18.1237 17.1787 17.9008C17.5734 17.7268 17.9568 17.5322 18.3268 17.3184L19.2213 16.8017L18.3819 16.1995C18.2454 16.1015 18.1098 15.9987 17.9771 15.8926L17.6578 15.6374L17.2855 15.8063C14.1016 17.2508 10.6065 17.2522 7.37839 15.8051L7.00498 15.6377L6.6867 15.8949C6.55742 15.9993 6.4238 16.1008 6.28748 16.1975L5.43945 16.7993L6.34029 17.3187C6.70878 17.5312 7.09082 17.7253 7.48474 17.8991C7.35025 18.1218 7.20842 18.3397 7.05961 18.5528C5.64226 18.0889 4.2041 17.4188 2.72431 16.3962C2.44428 12.9339 3.14951 9.43099 5.59512 5.82012C6.69283 5.34136 7.85525 4.97663 9.06528 4.74105C9.17384 4.94929 9.27928 5.16666 9.35995 5.35241L9.56329 5.82057L10.0683 5.74642C11.5639 5.5268 13.0744 5.52654 14.6017 5.74667L15.1055 5.81929L15.3083 5.35241C15.3894 5.16551 15.493 4.94863 15.5992 4.74163C16.8074 4.97711 17.9682 5.34063 19.0653 5.818C21.1973 8.93074 22.268 12.4055 21.9426 16.3962C20.4624 17.4203 19.0226 18.0906 17.6034 18.5546Z" stroke="#E6EFF7" stroke-width="1.33333"/>
<path d="M8.89994 14.453C7.87913 14.453 7.04199 13.5396 7.04199 12.4273C7.04199 11.315 7.86124 10.4001 8.89994 10.4001C9.93865 10.4001 10.7758 11.3134 10.7579 12.4273C10.7595 13.5396 9.93865 14.453 8.89994 14.453ZM15.7661 14.453C14.7453 14.453 13.9081 13.5396 13.9081 12.4273C13.9081 11.315 14.7274 10.4001 15.7661 10.4001C16.8047 10.4001 17.6419 11.3134 17.624 12.4273C17.624 13.5396 16.8047 14.453 15.7661 14.453Z" fill="#E6EFF7"/>
</svg>
