<svg width="24" height="24" viewBox="0 0 24 24" fill="none" xmlns="http://www.w3.org/2000/svg">
<path d="M19.5067 5.28415C18.1688 4.68424 16.7384 4.24824 15.243 4C15.0592 4.31825 14.8447 4.7463 14.6968 5.08683C13.107 4.85769 11.5319 4.85769 9.97143 5.08683C9.82353 4.7463 9.60405 4.31825 9.41879 4C7.92169 4.24824 6.48962 4.68583 5.15183 5.28733C2.4535 9.19545 1.72202 13.0065 2.08776 16.7635C3.87744 18.0444 5.61185 18.8225 7.317 19.3317C7.738 18.7764 8.11349 18.1861 8.43697 17.5639C7.82091 17.3395 7.23085 17.0627 6.6733 16.7412C6.82122 16.6362 6.96589 16.5264 7.10569 16.4134C10.5063 17.9378 14.201 17.9378 17.5609 16.4134C17.7023 16.5264 17.847 16.6362 17.9933 16.7412C17.4341 17.0642 16.8424 17.3411 16.2264 17.5655C16.5498 18.1861 16.9237 18.778 17.3463 19.3333C19.0531 18.8241 20.7891 18.046 22.5788 16.7635C23.008 12.4082 21.8457 8.63215 19.5067 5.28415ZM8.90024 14.453C7.87943 14.453 7.04229 13.5396 7.04229 12.4273C7.04229 11.315 7.86154 10.4001 8.90024 10.4001C9.93894 10.4001 10.776 11.3134 10.7582 12.4273C10.7598 13.5396 9.93894 14.453 8.90024 14.453ZM15.7664 14.453C14.7456 14.453 13.9084 13.5396 13.9084 12.4273C13.9084 11.315 14.7277 10.4001 15.7664 10.4001C16.805 10.4001 17.6422 11.3134 17.6243 12.4273C17.6243 13.5396 16.805 14.453 15.7664 14.453Z" fill="url(#paint0_linear_657_125635)"/>
<defs>
<linearGradient id="paint0_linear_657_125635" x1="0.892845" y1="2.46311" x2="8.29105" y2="25.0405" gradientUnits="userSpaceOnUse">
<stop stop-color="#08EDDF"/>
<stop offset="0.723958" stop-color="#8FEDA6"/>
<stop offset="1" stop-color="#CEED8B"/>
</linearGradient>
</defs>
</svg>
