<svg xmlns="http://www.w3.org/2000/svg" width="24" height="24" viewBox="0 0 37 36" fill="none">
<path fill-rule="evenodd" clip-rule="evenodd" d="M12.0065 3.14751C11.5881 3.2838 11.2011 3.51165 10.8757 3.81907L5.28585 9.09891C4.90634 9.45737 4.63084 9.90471 4.47961 10.3939H12.0065V3.14751ZM14.0065 3V10.3939C14.0065 11.4985 13.1111 12.3939 12.0065 12.3939H4.34588L4.34646 26.3032C4.34653 27.96 5.68965 29.303 7.34646 29.303H23.8917C25.5487 29.303 26.892 27.9597 26.8917 26.3027L26.8913 22.7273V7C26.8913 4.79086 25.1004 3 22.8913 3H14.0065ZM7.37009 24.6061C7.37009 25.1583 7.81781 25.6061 8.37009 25.6061H13.8339C14.3862 25.6061 14.8339 25.1583 14.8339 24.6061C14.8339 24.0538 14.3862 23.6061 13.8339 23.6061H8.37009C7.81781 23.6061 7.37009 24.0538 7.37009 24.6061ZM7.37009 20.3788C7.37009 20.9311 7.81781 21.3788 8.37009 21.3788H20.5822C21.1345 21.3788 21.5822 20.9311 21.5822 20.3788C21.5822 19.8265 21.1345 19.3788 20.5822 19.3788H8.37009C7.81781 19.3788 7.37009 19.8265 7.37009 20.3788ZM7.37009 16.1515C7.37009 16.7038 7.81781 17.1515 8.37009 17.1515H20.5822C21.1345 17.1515 21.5822 16.7038 21.5822 16.1515C21.5822 15.5992 21.1345 15.1515 20.5822 15.1515H8.37009C7.81781 15.1515 7.37009 15.5992 7.37009 16.1515ZM32.5276 11.6975C32.5278 9.56974 30.8668 7.82987 28.7706 7.70423L28.7698 16.1516L28.77 27.1817C28.7701 29.3909 26.9792 31.1818 24.77 31.1818H10.1601C10.6642 32.8141 12.185 34 13.9827 34H26.5273C29.841 34 32.5273 31.3137 32.5273 28V14.2727L32.5276 11.6975Z" fill="url(#paint0_linear_2031_4350)"/>
<defs>
<linearGradient id="paint0_linear_2031_4350" x1="34.0373" y1="-0.107189" x2="10.6639" y2="45.0242" gradientUnits="userSpaceOnUse">
<stop stop-color="#08EDDF"/>
<stop offset="1" stop-color="#CEED8B"/>
</linearGradient>
</defs>
</svg>