<svg xmlns="http://www.w3.org/2000/svg" width="24" height="24" viewBox="0 0 37 36" fill="none">
<path fill-rule="evenodd" clip-rule="evenodd" d="M7.06853 9.16603L6.65899 9.55286C6.45898 9.74178 6.34563 10.0048 6.34565 10.2799L6.34565 10.3333L12.6202 10.3333V4.13157C12.3773 4.22429 12.1527 4.36428 11.9604 4.54597L7.06853 9.16603ZM14.6202 2H13.3336H13.3308H12.9355C12.1694 2 11.4324 2.29305 10.8755 2.81907L5.68987 7.71711L5.28569 8.09884C4.68562 8.66557 4.34556 9.4545 4.34556 10.2799V10.3333V12.3333H4.34573L4.34623 24.3032C4.34632 26.5123 6.13716 28.303 8.34623 28.303H9.98177L9.98182 29.0003C9.98199 31.2093 11.7728 33 13.9818 33H26.5268C29.8405 33 32.5268 30.3137 32.5268 27V13.2727L32.5271 10.6975C32.5274 8.48813 30.7364 6.69697 28.5271 6.69697H27.1576V6C27.1576 3.79086 25.3668 2 23.1576 2H14.6202ZM27.1576 8.69697H28.5271C29.6318 8.69697 30.5272 9.59255 30.5271 10.6972L30.527 11.1526C30.6072 11.4209 30.6502 11.7052 30.6501 11.9996L30.6494 16.0909C30.6494 16.7446 30.6077 17.3886 30.5268 18.0203V27C30.5268 29.2091 28.7359 31 26.5268 31H17.537C16.9091 31.08 16.2691 31.1212 15.6195 31.1212H14.4754C14.186 31.1212 13.9088 31.0688 13.6528 30.9731C12.7048 30.8162 11.9819 29.9926 11.9818 29.0002L11.9818 28.303H23.1579C25.3673 28.303 27.1582 26.5119 27.1579 24.3025L27.1576 21.7273V8.69697ZM14.6202 4V10.3333C14.6202 11.4379 13.7248 12.3333 12.6202 12.3333H6.34573L6.34623 24.3031C6.34628 25.4076 7.2417 26.303 8.34623 26.303H23.1579C24.2626 26.303 25.1581 25.4075 25.1579 24.3028L25.1576 21.7275V21.7273V6C25.1576 4.89543 24.2622 4 23.1576 4H14.6202ZM8.30949 22.6667C8.30949 23.219 8.7572 23.6667 9.30949 23.6667H14.7733C15.3256 23.6667 15.7733 23.219 15.7733 22.6667C15.7733 22.1144 15.3256 21.6667 14.7733 21.6667H9.30949C8.7572 21.6667 8.30949 22.1144 8.30949 22.6667ZM8.30949 18.9091C8.30949 19.4614 8.7572 19.9091 9.30949 19.9091H21.5216C22.0739 19.9091 22.5216 19.4614 22.5216 18.9091C22.5216 18.3568 22.0739 17.9091 21.5216 17.9091H9.30949C8.7572 17.9091 8.30949 18.3568 8.30949 18.9091ZM8.30949 15.1515C8.30949 15.7038 8.7572 16.1515 9.30949 16.1515H21.5216C22.0739 16.1515 22.5216 15.7038 22.5216 15.1515C22.5216 14.5992 22.0739 14.1515 21.5216 14.1515H9.30949C8.7572 14.1515 8.30949 14.5992 8.30949 15.1515Z" fill="#E6EFF7"/>
</svg>