<svg width="24" height="24" viewBox="0 0 24 24" fill="none" xmlns="http://www.w3.org/2000/svg">
<path fill-rule="evenodd" clip-rule="evenodd" d="M3.60781 9.42411C3.00722 9.99088 2.66681 10.7802 2.6668 11.6059L2.66669 20.0046C2.66667 21.1091 3.56211 22.0046 4.66669 22.0046H8.33334C8.88563 22.0046 9.33334 21.5569 9.33334 21.0046V15.2281C9.33334 14.1235 10.2288 13.2281 11.3333 13.2281H12.6667C13.7712 13.2281 14.6667 14.1235 14.6667 15.2281V21.0046C14.6667 21.5569 15.1144 22.0046 15.6667 22.0046H19.3331C20.4376 22.0046 21.3331 21.1092 21.3331 20.0046L21.3332 11.606C21.3332 10.7802 20.9928 9.99086 20.3921 9.42408L13.3725 2.80003C12.6019 2.07283 11.3978 2.07284 10.6272 2.80005L3.60781 9.42411Z" fill="url(#paint0_linear_1621_2809)"/>
<defs>
<linearGradient id="paint0_linear_1621_2809" x1="1.66668" y1="0.275064" x2="14.0179" y2="26.7066" gradientUnits="userSpaceOnUse">
<stop stop-color="#08EDDF"/>
<stop offset="0.723958" stop-color="#8FEDA6"/>
<stop offset="1" stop-color="#CEED8B"/>
</linearGradient>
</defs>
</svg>
