<svg width="24" height="24" viewBox="0 0 24 24" fill="none" xmlns="http://www.w3.org/2000/svg">
<mask id="path-2-inside-1_1755_879" fill="white">
<path fill-rule="evenodd" clip-rule="evenodd" d="M3.6078 9.41941C3.0072 9.98618 2.6668 10.7755 2.66678 11.6012L2.66667 19.9999C2.66666 21.1044 3.56209 21.9999 4.66667 21.9999H8.33333C8.88561 21.9999 9.33333 21.5522 9.33333 20.9999V15.2234C9.33333 14.1188 10.2288 13.2234 11.3333 13.2234H12.6667C13.7712 13.2234 14.6667 14.1188 14.6667 15.2234V20.9999C14.6667 21.5522 15.1144 21.9999 15.6667 21.9999H19.3331C20.4376 21.9999 21.333 21.1045 21.3331 19.9999L21.3332 11.6013C21.3332 10.7755 20.9928 9.98616 20.3921 9.41938L13.3725 2.79533C12.6019 2.06813 11.3978 2.06814 10.6272 2.79535L3.6078 9.41941Z"/>
</mask>
<path d="M2.66678 11.6012L0.666784 11.6012L2.66678 11.6012ZM3.6078 9.41941L4.98046 10.874H4.98046L3.6078 9.41941ZM2.66667 19.9999L0.666672 19.9998L2.66667 19.9999ZM21.3331 19.9999L19.3331 19.9999V19.9999L21.3331 19.9999ZM21.3332 11.6013L23.3332 11.6014V11.6013L21.3332 11.6013ZM20.3921 9.41938L19.0195 10.874L19.0195 10.874L20.3921 9.41938ZM13.3725 2.79533L14.7451 1.34073V1.34073L13.3725 2.79533ZM10.6272 2.79535L9.25455 1.34077L9.25455 1.34077L10.6272 2.79535ZM4.66678 11.6013C4.66679 11.326 4.78026 11.0629 4.98046 10.874L2.23514 7.96483C1.23415 8.90944 0.666803 10.2249 0.666784 11.6012L4.66678 11.6013ZM4.66667 19.9999L4.66678 11.6013L0.666784 11.6012L0.666672 19.9998L4.66667 19.9999ZM4.66667 19.9999H4.66667L0.666672 19.9998C0.666642 22.209 2.45751 23.9999 4.66667 23.9999V19.9999ZM8.33333 19.9999H4.66667V23.9999H8.33333V19.9999ZM11.3333 20.9999V15.2234H7.33333V20.9999H11.3333ZM11.3333 15.2234L11.3333 15.2234V11.2234C9.12419 11.2234 7.33333 13.0143 7.33333 15.2234H11.3333ZM11.3333 15.2234H12.6667V11.2234H11.3333V15.2234ZM12.6667 15.2234H12.6667H16.6667C16.6667 13.0143 14.8758 11.2234 12.6667 11.2234V15.2234ZM12.6667 15.2234V20.9999H16.6667V15.2234H12.6667ZM19.3331 19.9999H15.6667V23.9999H19.3331V19.9999ZM19.3331 19.9999V19.9999V23.9999C21.5422 23.9999 23.333 22.2091 23.3331 19.9999L19.3331 19.9999ZM19.3332 11.6013L19.3331 19.9999L23.3331 19.9999L23.3332 11.6014L19.3332 11.6013ZM19.0195 10.874C19.2197 11.0629 19.3332 11.326 19.3332 11.6013L23.3332 11.6013C23.3332 10.225 22.7658 8.90942 21.7648 7.96477L19.0195 10.874ZM11.9999 4.24994L19.0195 10.874L21.7648 7.96477L14.7451 1.34073L11.9999 4.24994ZM11.9999 4.24994L11.9999 4.24994L14.7451 1.34073C13.2039 -0.113672 10.7958 -0.113657 9.25455 1.34077L11.9999 4.24994ZM4.98046 10.874L11.9999 4.24994L9.25455 1.34077L2.23514 7.96483L4.98046 10.874ZM12.6667 20.9999C12.6667 22.6567 14.0098 23.9999 15.6667 23.9999V19.9999C16.2189 19.9999 16.6667 20.4476 16.6667 20.9999H12.6667ZM8.33333 23.9999C9.99018 23.9999 11.3333 22.6567 11.3333 20.9999H7.33333C7.33333 20.4476 7.78104 19.9999 8.33333 19.9999V23.9999Z" fill="#E6EFF7" mask="url(#path-2-inside-1_1755_879)"/>
</svg>
