<svg width="24" height="24" viewBox="0 0 24 24" fill="none" xmlns="http://www.w3.org/2000/svg">
<path d="M21.0668 12.9666H21.0667H19.5667V7.19984V7.19973C19.5651 5.67251 18.3274 4.43486 16.8 4.43324H16.7999H15.2999V2.93325V2.93314C15.2989 1.9948 14.5386 1.23429 13.6 1.23325H13.5999L10.3999 1.23325L10.3998 1.23325C9.46146 1.23429 8.70096 1.99479 8.69992 2.93314V2.93325V4.43324L7.19993 4.43324L7.19982 4.43324C5.67261 4.43486 4.43495 5.67252 4.43333 7.19973V7.19984V12.9666H2.93334H2.93323C1.99489 12.9677 1.23438 13.728 1.23334 14.6665V14.6666L1.23334 17.8666L1.23334 17.8667C1.23496 19.3939 2.47262 20.6316 3.99983 20.6332H3.99994H4.50691C4.8009 21.8785 5.91311 22.765 7.1998 22.7666H7.19993H16.7999H16.8C18.0867 22.765 19.1991 21.8785 19.4931 20.6332H19.9999H20C21.5274 20.6316 22.7651 19.3939 22.7667 17.8667V17.8666V14.6666V14.6665C22.7656 13.728 22.0051 12.9677 21.0668 12.9666ZM5.69993 19.9997V12.7137C6.14393 13.0066 6.66501 13.1648 7.19959 13.1666H7.19993H8.69992V14.6666C8.69992 15.0164 8.98361 15.2998 9.33332 15.2998C9.68303 15.2998 9.96672 15.0164 9.96672 14.6666V13.1666H14.0333V14.6666C14.0333 15.0164 14.317 15.2998 14.6667 15.2998C15.0165 15.2998 15.2999 15.0164 15.2999 14.6666V13.1666H16.7999L16.8002 13.1666C17.335 13.1648 17.8559 13.0066 18.2999 12.7137V19.9997C18.299 20.8279 17.628 21.4989 16.7998 21.4998H7.20004C6.37197 21.4989 5.70085 20.8279 5.69993 19.9997ZM9.96672 2.93338C9.96703 2.69415 10.1608 2.50021 10.4 2.49985C10.4 2.49985 10.4 2.49985 10.4 2.49985H13.5998C13.5998 2.49985 13.5998 2.49985 13.5999 2.49985C13.8392 2.50021 14.033 2.69417 14.0333 2.93338V4.43324H9.96672V2.93338ZM5.69993 7.19995C5.70085 6.37189 6.37198 5.70076 7.20004 5.69984H16.7998C17.628 5.70076 18.299 6.37188 18.2999 7.19995V10.3997C18.299 11.228 17.628 11.8989 16.7998 11.8998H15.2999V11.4666C15.2999 11.1169 15.0165 10.8332 14.6667 10.8332C14.3169 10.8332 14.0333 11.1169 14.0333 11.4666V11.8998H9.96672V11.4666C9.96672 11.1169 9.68308 10.8332 9.33332 10.8332C8.98356 10.8332 8.69992 11.1169 8.69992 11.4666V11.8998H7.20004C6.37197 11.8989 5.70085 11.228 5.69993 10.3997V7.19995ZM2.49994 17.8665V14.6667C2.49994 14.6667 2.49994 14.6667 2.49994 14.6667C2.5003 14.4273 2.69427 14.2335 2.93347 14.2332H4.43333V19.3666H4.00005C3.17202 19.3657 2.50091 18.6946 2.49994 17.8666C2.49994 17.8666 2.49994 17.8665 2.49994 17.8665ZM21.4999 17.8665C21.499 18.6946 20.828 19.3657 19.9998 19.3666H19.5667V14.2332H21.0665C21.3057 14.2335 21.4996 14.4273 21.4999 14.6667V17.8665Z" fill="#E6EFF7" stroke="#E6EFF7" stroke-width="0.2"/>
</svg>
