<svg width="24" height="24" viewBox="0 0 24 24" fill="none" xmlns="http://www.w3.org/2000/svg">
<path fill-rule="evenodd" clip-rule="evenodd" d="M15.1999 4.53324H16.7999C18.2722 4.5348 19.4651 5.72777 19.4667 7.19983V10.3998C19.4657 11.2832 18.7499 11.9988 17.8667 11.9998H15.1999V11.4666C15.1999 11.1721 14.9612 10.9332 14.6667 10.9332C14.3722 10.9332 14.1333 11.1721 14.1333 11.4666V11.9998H9.86672V11.4666C9.86672 11.1721 9.62786 10.9332 9.33333 10.9332C9.0388 10.9332 8.79993 11.1721 8.79993 11.4666V11.9998H6.13334C5.25014 11.9988 4.53432 11.2832 4.53334 10.3998V7.19983C4.5349 5.72777 5.72787 4.5348 7.19994 4.53324H8.79993V2.93325C8.80091 2.05005 9.51673 1.33423 10.3999 1.33325H13.5999C14.4833 1.33423 15.1989 2.05005 15.1999 2.93325V4.53324ZM9.86672 4.53324H14.1333V2.93325C14.1329 2.63891 13.8944 2.40024 13.5999 2.39985H10.3999C10.1056 2.40024 9.86712 2.63891 9.86672 2.93325V4.53324Z" fill="url(#paint0_linear_4814_1284)"/>
<path d="M20.5333 14.1332H21.0667C21.9499 14.1342 22.6657 14.85 22.6667 15.7332V17.8666C22.6641 19.1506 21.7471 20.2508 20.4843 20.4842C20.5114 20.324 20.5278 20.1623 20.5333 19.9998V14.1332Z" fill="url(#paint1_linear_4814_1284)"/>
<path d="M3.46673 14.1332H2.93333C2.05013 14.1342 1.33431 14.85 1.33334 15.7332V17.8666C1.33568 19.1506 2.25286 20.2508 3.51556 20.4842C3.4886 20.324 3.4722 20.1623 3.46673 19.9998V14.1332Z" fill="url(#paint2_linear_4814_1284)"/>
<path d="M15.1999 14.6666V13.0666H17.8667C18.4454 13.0647 19.0077 12.8725 19.4667 12.5197V19.9998C19.4651 21.4721 18.2722 22.665 16.7999 22.6666H7.19994C5.72787 22.665 4.5349 21.4721 4.53334 19.9998V12.5197C4.99232 12.8725 5.55443 13.0647 6.13334 13.0666H8.79993V14.6666C8.79993 14.9611 9.0388 15.1998 9.33333 15.1998C9.62786 15.1998 9.86672 14.9611 9.86672 14.6666V13.0666H14.1333V14.6666C14.1333 14.9611 14.3722 15.1998 14.6667 15.1998C14.9612 15.1998 15.1999 14.9611 15.1999 14.6666Z" fill="url(#paint3_linear_4814_1284)"/>
<defs>
<linearGradient id="paint0_linear_4814_1284" x1="0.190467" y1="-0.805028" x2="13.0459" y2="28.3022" gradientUnits="userSpaceOnUse">
<stop stop-color="#08EDDF"/>
<stop offset="0.723958" stop-color="#8FEDA6"/>
<stop offset="1" stop-color="#CEED8B"/>
</linearGradient>
<linearGradient id="paint1_linear_4814_1284" x1="0.190467" y1="-0.805028" x2="13.0459" y2="28.3022" gradientUnits="userSpaceOnUse">
<stop stop-color="#08EDDF"/>
<stop offset="0.723958" stop-color="#8FEDA6"/>
<stop offset="1" stop-color="#CEED8B"/>
</linearGradient>
<linearGradient id="paint2_linear_4814_1284" x1="0.190467" y1="-0.805028" x2="13.0459" y2="28.3022" gradientUnits="userSpaceOnUse">
<stop stop-color="#08EDDF"/>
<stop offset="0.723958" stop-color="#8FEDA6"/>
<stop offset="1" stop-color="#CEED8B"/>
</linearGradient>
<linearGradient id="paint3_linear_4814_1284" x1="0.190467" y1="-0.805028" x2="13.0459" y2="28.3022" gradientUnits="userSpaceOnUse">
<stop stop-color="#08EDDF"/>
<stop offset="0.723958" stop-color="#8FEDA6"/>
<stop offset="1" stop-color="#CEED8B"/>
</linearGradient>
</defs>
</svg>
