<svg width="24" height="24" viewBox="0 0 24 24" fill="none" xmlns="http://www.w3.org/2000/svg">
<path fill-rule="evenodd" clip-rule="evenodd" d="M13.2637 17.2415C12.8661 17.4635 12.4185 17.5796 11.9635 17.5788C11.6024 17.5809 11.2444 17.5111 10.9104 17.3734L11.4186 16.1407C11.5891 16.211 11.7717 16.2466 11.9558 16.2455L11.9607 16.2455L11.9657 16.2455C12.1866 16.2459 12.4042 16.1909 12.5988 16.0856C14.479 14.9571 16.2195 13.6094 17.7838 12.0705L17.7911 12.0634L17.7984 12.0564C18.9697 10.9386 19.8281 9.5316 20.2871 7.97609C20.7161 6.52239 20.7821 4.98687 20.4817 3.50433C19.01 3.21663 17.4888 3.29254 16.0501 3.72775C14.5076 4.19434 13.1135 5.05777 12.0065 6.23255L11.9979 6.24173L11.989 6.25074C10.4549 7.81826 9.11123 9.56234 7.98593 11.4466C7.84682 11.709 7.79417 12.0094 7.8362 12.3043C7.87917 12.6059 8.01868 12.8848 8.233 13.0991L8.23423 13.1003L10.9625 15.8357C11.0931 15.9668 11.2482 16.0704 11.4186 16.1407L10.9104 17.3734C10.5764 17.2357 10.273 17.0328 10.0178 16.7766L7.2902 14.0419C6.87148 13.6232 6.59983 13.0794 6.5162 12.4924C6.43256 11.9054 6.54147 11.3071 6.8265 10.7876C6.9069 10.6527 6.98837 10.5184 7.0709 10.3849C6.59085 10.1016 5.96727 9.65213 5.44888 9.1787C5.09909 8.85926 4.75307 8.48971 4.5291 8.11284C4.32735 7.77337 4.0901 7.18971 4.43708 6.64284C4.86422 5.96962 5.8412 5.21985 7.00263 4.85297C8.17203 4.48357 9.61469 4.47633 10.9625 5.39362L11.0361 5.31815C12.3027 3.97398 13.8983 2.98568 15.664 2.45153C17.4298 1.91738 19.3042 1.856 21.101 2.27349C21.245 2.31686 21.376 2.39535 21.4823 2.50194C21.5886 2.60853 21.6669 2.73988 21.7102 2.88425C22.1406 4.68853 22.0909 6.57451 21.5659 8.35346C21.0409 10.1324 20.0592 11.7419 18.7189 13.021C18.6941 13.0454 18.6692 13.0697 18.6443 13.0941C19.5234 14.4256 19.5113 15.8443 19.147 16.9974C18.7801 18.1588 18.0304 19.1358 17.3572 19.5629C16.8103 19.9099 16.2266 19.6726 15.8872 19.4709C15.5103 19.2469 15.1407 18.9009 14.8213 18.5511C14.3712 18.0582 13.9427 17.4703 13.6581 17.001C13.5273 17.0822 13.3958 17.1624 13.2637 17.2415ZM14.775 16.2716C14.995 16.6399 15.3779 17.1833 15.8058 17.652C16.0909 17.9641 16.3569 18.1991 16.5683 18.3247C16.6324 18.3628 16.6771 18.3832 16.706 18.3939C17.0654 18.1312 17.6 17.4682 17.8756 16.5957C18.1278 15.7975 18.1426 14.8915 17.6495 14.0213C16.7392 14.831 15.7791 15.5826 14.775 16.2716ZM10.0414 6.38689C9.23431 7.29873 8.48514 8.26031 7.79823 9.26595C7.43139 9.0548 6.84726 8.6501 6.34802 8.19416C6.03587 7.9091 5.80093 7.64306 5.67529 7.43166C5.63722 7.36759 5.61684 7.32285 5.60614 7.29399C5.86882 6.93461 6.53183 6.39997 7.40425 6.12438C8.22169 5.86616 9.15211 5.8568 10.0414 6.38689ZM5.59631 7.262C5.59472 7.25466 5.59474 7.25134 5.59515 7.25151C5.59555 7.25169 5.59635 7.25536 5.59631 7.262ZM16.738 18.4037C16.7453 18.4053 16.7487 18.4053 16.7485 18.4049C16.7483 18.4044 16.7446 18.4037 16.738 18.4037Z" fill="#E6EFF7"/>
<path fill-rule="evenodd" clip-rule="evenodd" d="M3.82613 16.3117C2.46232 17.6973 2.05318 20.6417 2.00772 20.9699C1.99081 21.0992 2.00175 21.2306 2.03981 21.3552C2.07787 21.4799 2.14215 21.5949 2.22833 21.6925C2.3145 21.7902 2.42056 21.8681 2.53935 21.9212C2.65814 21.9742 2.78689 22.0011 2.91692 22H3.03512C3.36243 22 6.29916 21.5715 7.68115 20.1768C8.18092 19.6656 8.46086 18.9783 8.46086 18.2625C8.46086 17.5467 8.18092 16.8594 7.68115 16.3482C7.17456 15.8312 6.484 15.537 5.76117 15.5301C5.03834 15.5233 4.34236 15.8044 3.82613 16.3117ZM4.5831 20.3332C5.47055 20.0697 6.281 19.6931 6.73025 19.2422C6.98455 18.9807 7.12753 18.6292 7.12753 18.2625C7.12753 17.8948 6.98376 17.5424 6.72815 17.2807C6.46897 17.0166 6.11661 16.8669 5.74855 16.8634C5.38373 16.86 5.03166 17.0004 4.76834 17.2553C4.33044 17.7055 3.96461 18.5163 3.70208 19.4123C3.56872 19.8674 3.47713 20.2903 3.41762 20.6081L3.46775 20.5991C3.77013 20.5445 4.16281 20.458 4.5831 20.3332Z" fill="#E6EFF7"/>
<path d="M16.3333 9.33333C17.2538 9.33333 18 8.58714 18 7.66667C18 6.74619 17.2538 6 16.3333 6C15.4129 6 14.6667 6.74619 14.6667 7.66667C14.6667 8.58714 15.4129 9.33333 16.3333 9.33333Z" fill="#E6EFF7"/>
</svg>
