<svg width="24" height="24" viewBox="0 0 24 24" fill="none" xmlns="http://www.w3.org/2000/svg">
<path d="M7.68115 16.3482C8.18092 16.8594 8.46086 17.5467 8.46086 18.2625C8.46086 18.9783 8.18092 19.6656 7.68115 20.1768C6.29916 21.5715 3.36243 22 3.03512 22H2.91692C2.78689 22.0011 2.65814 21.9742 2.53935 21.9212C2.42056 21.8681 2.3145 21.7902 2.22833 21.6925C2.14215 21.5949 2.07787 21.4799 2.03981 21.3552C2.00175 21.2306 1.99081 21.0992 2.00772 20.9699C2.05318 20.6417 2.46232 17.6973 3.82613 16.3117C4.34236 15.8044 5.03834 15.5233 5.76117 15.5301C6.484 15.537 7.17456 15.8312 7.68115 16.3482ZM18.7189 13.021C17.0737 14.6395 15.2424 16.0563 13.2637 17.2415C12.8661 17.4635 12.4185 17.5796 11.9635 17.5788C11.6024 17.5809 11.2444 17.5111 10.9104 17.3734C10.5764 17.2357 10.273 17.0328 10.0178 16.7766L7.2902 14.0419C6.87148 13.6232 6.59983 13.0794 6.5162 12.4924C6.43256 11.9054 6.54147 11.3071 6.8265 10.7876C8.00866 8.8037 9.42177 6.96768 11.0361 5.31815C12.3027 3.97398 13.8983 2.98568 15.664 2.45153C17.4298 1.91738 19.3042 1.856 21.101 2.27349C21.245 2.31686 21.376 2.39535 21.4823 2.50194C21.5886 2.60853 21.6669 2.73988 21.7102 2.88425C22.1406 4.68853 22.0909 6.57451 21.5659 8.35346C21.0409 10.1324 20.0592 11.7419 18.7189 13.021ZM17.8097 6.16592C17.5558 5.90986 17.2318 5.73514 16.8788 5.66392C16.5258 5.59269 16.1596 5.62816 15.8267 5.76583C15.4938 5.9035 15.2091 6.13717 15.0089 6.43722C14.8086 6.73727 14.7016 7.09019 14.7016 7.45124C14.7016 7.81228 14.8086 8.1652 15.0089 8.46525C15.2091 8.7653 15.4938 8.99897 15.8267 9.13664C16.1596 9.27431 16.5258 9.30978 16.8788 9.23856C17.2318 9.16733 17.5558 8.99261 17.8097 8.73656C18.152 8.39859 18.347 7.93853 18.3521 7.45688C18.3573 6.97522 18.172 6.5111 17.837 6.16592H17.8097ZM18.8735 14.1057C17.4012 15.4874 15.7997 16.7237 14.091 17.7976L15.9094 19.6208C15.9944 19.7052 16.0952 19.7721 16.2059 19.8174C16.3167 19.8628 16.4353 19.8858 16.555 19.8851C16.7935 19.8841 17.0221 19.7892 17.1914 19.6208L17.8097 19.0009C18.237 18.5762 18.576 18.0706 18.807 17.5135C19.038 16.9565 19.1564 16.359 19.1553 15.7557C19.1689 15.1949 19.0827 14.6362 18.9007 14.1057H18.8735ZM5.00809 6.13857L4.38983 6.75844C4.22049 6.92923 4.12544 7.16027 4.12544 7.4011C4.12544 7.64192 4.22049 7.87296 4.38983 8.04376L6.20824 9.86691C7.26117 8.15602 8.4793 6.55306 9.84506 5.08114C9.02312 4.76991 8.12885 4.70415 7.27042 4.89182C6.41199 5.07948 5.62619 5.51253 5.00809 6.13857Z" fill="url(#paint0_linear_159_30483)"/>
<defs>
<linearGradient id="paint0_linear_159_30483" x1="0.92856" y1="-0.00463765" x2="12.9805" y2="27.2834" gradientUnits="userSpaceOnUse">
<stop stop-color="#08EDDF"/>
<stop offset="0.723958" stop-color="#8FEDA6"/>
<stop offset="1" stop-color="#CEED8B"/>
</linearGradient>
</defs>
</svg>
