<svg width="182" height="28" viewBox="0 0 182 28" fill="none" xmlns="http://www.w3.org/2000/svg">
<path fill-rule="evenodd" clip-rule="evenodd" d="M7.36159 4.99594C6.60684 7.26004 6.125 10.4435 6.125 14C6.125 17.5565 6.60684 20.74 7.36159 23.0041C7.74049 24.1407 8.17238 24.9974 8.60946 25.5519C9.05431 26.1164 9.40419 26.25 9.62531 26.25C9.84642 26.25 10.1963 26.1164 10.6412 25.5519C11.0782 24.9974 11.5101 24.1407 11.889 23.0041C12.6438 20.74 13.1256 17.5565 13.1256 14C13.1256 10.4435 12.6438 7.26004 11.889 4.99594C11.5101 3.85932 11.0782 3.00262 10.6412 2.44805C10.1963 1.88363 9.84642 1.75 9.62531 1.75C9.40419 1.75 9.05431 1.88363 8.60946 2.44805C8.17238 3.00262 7.74049 3.85932 7.36159 4.99594ZM7.23502 1.3648C7.83708 0.600908 8.63821 0 9.62531 0C10.6124 0 11.4135 0.600908 12.0156 1.3648C12.6254 2.13855 13.1363 3.20397 13.5492 4.44251C14.378 6.92873 14.8756 10.3078 14.8756 14C14.8756 17.6922 14.378 21.0713 13.5492 23.5575C13.1363 24.796 12.6254 25.8614 12.0156 26.6352C11.4135 27.3991 10.6124 28 9.62531 28C8.63821 28 7.83708 27.3991 7.23502 26.6352C6.6252 25.8614 6.11428 24.796 5.70141 23.5575C4.87261 21.0713 4.375 17.6922 4.375 14C4.375 10.3078 4.87261 6.92873 5.70141 4.44251C6.11428 3.20397 6.6252 2.13855 7.23502 1.3648Z" fill="white"/>
<path fill-rule="evenodd" clip-rule="evenodd" d="M16.1116 4.99594C15.3568 7.26004 14.875 10.4435 14.875 14C14.875 17.5565 15.3568 20.74 16.1116 23.0041C16.4905 24.1407 16.9224 24.9974 17.3595 25.5519C17.8043 26.1164 18.1542 26.25 18.3753 26.25C18.5964 26.25 18.9463 26.1164 19.3912 25.5519C19.8282 24.9974 20.2601 24.1407 20.639 23.0041C21.3938 20.74 21.8756 17.5565 21.8756 14C21.8756 10.4435 21.3938 7.26004 20.639 4.99594C20.2601 3.85932 19.8282 3.00262 19.3912 2.44805C18.9463 1.88363 18.5964 1.75 18.3753 1.75C18.1542 1.75 17.8043 1.88363 17.3595 2.44805C16.9224 3.00262 16.4905 3.85932 16.1116 4.99594ZM15.985 1.3648C16.5871 0.600908 17.3882 0 18.3753 0C19.3624 0 20.1635 0.600908 20.7656 1.3648C21.3754 2.13855 21.8863 3.20397 22.2992 4.44251C23.128 6.92873 23.6256 10.3078 23.6256 14C23.6256 17.6922 23.128 21.0713 22.2992 23.5575C21.8863 24.796 21.3754 25.8614 20.7656 26.6352C20.1635 27.3991 19.3624 28 18.3753 28C17.3882 28 16.5871 27.3991 15.985 26.6352C15.3752 25.8614 14.8643 24.796 14.4514 23.5575C13.6226 21.0713 13.125 17.6922 13.125 14C13.125 10.3078 13.6226 6.92873 14.4514 4.44251C14.8643 3.20397 15.3752 2.13855 15.985 1.3648Z" fill="white"/>
<path fill-rule="evenodd" clip-rule="evenodd" d="M2.44805 12.984C1.88363 13.4289 1.75 13.7788 1.75 13.9999C1.75 14.221 1.88363 14.5709 2.44805 15.0157C3.00262 15.4528 3.85932 15.8847 4.99594 16.2636C7.26004 17.0183 10.4435 17.5002 14 17.5002C17.5565 17.5002 20.74 17.0183 23.0041 16.2636C24.1407 15.8847 24.9974 15.4528 25.5519 15.0157C26.1164 14.5709 26.25 14.221 26.25 13.9999C26.25 13.7788 26.1164 13.4289 25.5519 12.984C24.9974 12.5469 24.1407 12.1151 23.0041 11.7362C20.74 10.9814 17.5565 10.4996 14 10.4996C10.4435 10.4996 7.26004 10.9814 4.99594 11.7362C3.85932 12.1151 3.00262 12.5469 2.44805 12.984ZM4.44251 10.076C6.92873 9.24718 10.3078 8.74957 14 8.74957C17.6922 8.74957 21.0713 9.24718 23.5575 10.076C24.796 10.4889 25.8614 10.9998 26.6352 11.6096C27.3991 12.2117 28 13.0128 28 13.9999C28 14.987 27.3991 15.7881 26.6352 16.3902C25.8614 17 24.796 17.5109 23.5575 17.9238C21.0713 18.7526 17.6922 19.2502 14 19.2502C10.3078 19.2502 6.92873 18.7526 4.44251 17.9238C3.20397 17.5109 2.13855 17 1.3648 16.3902C0.600908 15.7881 0 14.987 0 13.9999C0 13.0128 0.600908 12.2117 1.3648 11.6096C2.13855 10.9998 3.20397 10.4889 4.44251 10.076Z" fill="white"/>
<path d="M151.967 11.9819C151.967 9.17567 150.666 7.89038 147.232 7.89038H138.303V20.1067H141.611V16.052H145.825L148.643 20.1067H152.618L149.31 15.7612C151.174 15.2349 151.967 14.0965 151.967 11.9788V11.9819ZM147.086 13.6313H141.611V10.4426H147.086C148.187 10.4426 148.606 10.7333 148.606 12.0155C148.606 13.2978 148.19 13.6283 147.086 13.6283V13.6313Z" fill="white"/>
<path d="M157.57 7.89337H154.59V17.4902C154.59 18.9315 155.759 20.1005 157.197 20.1005H166.381V17.1168H157.57V7.89337Z" fill="white"/>
<path d="M47.1057 12.5603H40.1285V7.89038H36.75V20.1067H40.1285V15.0574H47.1057V20.1067H50.5056V7.89038H47.1057V12.5603Z" fill="white"/>
<path d="M61.0505 7.89038H58.4829C54.2354 7.89038 52.0137 10.0233 52.0137 14.0077C52.0137 17.9921 54.2384 20.1067 58.4829 20.1067H61.0505C65.298 20.1067 67.5197 17.9707 67.5197 14.0077C67.5197 10.0448 65.295 7.89038 61.0505 7.89038ZM60.4537 17.7014H58.8808C55.9889 17.7014 55.4105 15.9265 55.4105 14.0077C55.4105 12.089 55.9889 10.3141 58.8808 10.3141H60.4537C63.5262 10.3141 64.1229 12.0859 64.1229 14.0077C64.1229 15.9295 63.5262 17.7014 60.4537 17.7014Z" fill="white"/>
<path d="M90.904 7.89038H88.3365C84.0889 7.89038 81.8672 10.0264 81.8672 14.0077C81.8672 17.9891 84.092 20.1067 88.3365 20.1067H90.904C95.1515 20.1067 97.3733 17.9707 97.3733 14.0077C97.3733 10.0448 95.1546 7.89038 90.904 7.89038ZM90.3072 17.7014H88.7343C85.8424 17.7014 85.264 15.9265 85.264 14.0077C85.264 12.089 85.8424 10.3141 88.7343 10.3141H90.3072C93.3797 10.3141 93.9764 12.0859 93.9764 14.0077C93.9764 15.9295 93.3797 17.7014 90.3072 17.7014Z" fill="white"/>
<path d="M129.64 7.89038H127.073C122.825 7.89038 120.604 10.0264 120.604 14.0077C120.604 17.9891 122.828 20.1067 127.073 20.1067H129.64C133.888 20.1067 136.11 17.9707 136.11 14.0077C136.11 10.0448 133.891 7.89038 129.64 7.89038ZM129.044 17.7014H127.471C124.579 17.7014 124 15.9265 124 14.0077C124 12.089 124.579 10.3141 127.471 10.3141H129.044C132.116 10.3141 132.713 12.0859 132.713 14.0077C132.713 15.9295 132.116 17.7014 129.044 17.7014Z" fill="white"/>
<path d="M72.1896 7.89337H69.209V17.4902C69.209 18.9315 70.378 20.1005 71.8163 20.1005H81V17.1168H72.1896V7.89337Z" fill="white"/>
<path d="M97.7988 8.18091H101.018L103.583 16.0426L106.756 8.18091H111.169L114.342 16.0609L116.895 8.18091H120.114L117.093 17.8022C116.717 19.0018 115.603 19.8189 114.345 19.8189C113.14 19.8189 112.062 19.0691 111.643 17.9399L108.962 10.7178L106.282 17.9399C105.862 19.0691 104.785 19.8189 103.58 19.8189C102.322 19.8189 101.211 19.0049 100.831 17.8053L97.7988 8.18091Z" fill="white"/>
<path d="M167.852 7.875H175.909C179.343 7.875 181.834 10.6384 181.834 13.9924C181.834 17.3463 179.343 20.125 175.909 20.125H167.852V7.875ZM174.608 17.6983C177.115 17.6983 178.483 15.9631 178.483 13.9924C178.483 12.0216 177.115 10.3048 174.608 10.3048H171.092V17.6983H174.608Z" fill="white"/>
</svg>
