<svg width="24" height="24" viewBox="0 0 24 24" fill="none" xmlns="http://www.w3.org/2000/svg">
<path fill-rule="evenodd" clip-rule="evenodd" d="M20.6667 6V13.7121C20.6667 14.9721 19.8059 15.9811 18.662 16.1476C16.856 16.4105 14.4611 16.6667 12 16.6667C9.53889 16.6667 7.144 16.4105 5.33797 16.1476C4.19414 15.9811 3.33333 14.9721 3.33333 13.7121V6C3.33333 4.52724 4.52724 3.33333 6 3.33333H18C19.4728 3.33333 20.6667 4.52724 20.6667 6ZM22 13.7121V6C22 3.79086 20.2091 2 18 2H6C3.79086 2 2 3.79086 2 6V13.7121C2 15.5816 3.29596 17.1978 5.14591 17.4671C6.99035 17.7356 9.45338 18 12 18C14.5466 18 17.0097 17.7356 18.8541 17.4671C20.704 17.1978 22 15.5816 22 13.7121ZM19.8947 21.325C20.2582 21.3831 20.6001 21.1356 20.6583 20.772C20.7165 20.4084 20.4689 20.0665 20.1053 20.0084L16.6076 19.4487C13.3333 18.9248 9.99469 18.9474 6.7277 19.5156L3.88577 20.0099C3.52303 20.0729 3.28011 20.4181 3.34319 20.7809C3.40628 21.1436 3.75148 21.3866 4.11423 21.3235L6.95616 20.8292C10.0779 20.2863 13.2681 20.2647 16.397 20.7653L19.8947 21.325Z" fill="#E6EFF7"/>
<path fill-rule="evenodd" clip-rule="evenodd" d="M8.39539 6.10325C9.35576 5.18054 10.6528 4.66663 12 4.66663C13.3471 4.66663 14.6442 5.18054 15.6045 6.10326C16.5658 7.02684 17.1111 8.28532 17.1111 9.60344V10.1481H17.3333C18.0697 10.1481 18.6666 10.745 18.6666 11.4814V13.2592C18.6666 13.9956 18.0697 14.5925 17.3333 14.5925H16.3703C16.0022 14.5925 15.7037 14.294 15.7037 13.9258V10.8147C15.7037 10.7046 15.7304 10.6006 15.7777 10.509V9.60344C15.7777 8.65654 15.3865 7.74276 14.6808 7.06473C13.9742 6.38583 13.0103 5.99996 12 5.99996C10.9896 5.99996 10.0258 6.38583 9.31915 7.06473C8.61345 7.74276 8.22219 8.65654 8.22219 9.60344L8.22219 10.509C8.26954 10.6006 8.29628 10.7045 8.29628 10.8147V13.9258C8.29628 14.294 7.9978 14.5925 7.62961 14.5925H6.66665C5.93027 14.5925 5.33331 13.9956 5.33331 13.2592V11.4814C5.33331 10.745 5.93027 10.1481 6.66665 10.1481H6.88885L6.88885 9.60344C6.88885 8.28531 7.4341 7.02684 8.39539 6.10325ZM14.2052 9.95318C14.5174 10.1483 14.6123 10.5596 14.4172 10.8718L12.5653 13.8348C12.4435 14.0297 12.2298 14.1481 12 14.1481C11.7701 14.1481 11.5565 14.0297 11.4346 13.8348L9.58279 10.8718C9.38765 10.5596 9.48257 10.1483 9.79479 9.95318C10.107 9.75804 10.5183 9.85296 10.7135 10.1652L12 12.2236L13.2865 10.1652C13.4816 9.85296 13.8929 9.75804 14.2052 9.95318ZM18.3333 6.66667C18.8856 6.66667 19.3333 6.21895 19.3333 5.66667C19.3333 5.11438 18.8856 4.66667 18.3333 4.66667C17.781 4.66667 17.3333 5.11438 17.3333 5.66667C17.3333 6.21895 17.781 6.66667 18.3333 6.66667Z" fill="#E6EFF7"/>
</svg>
