<svg width="24" height="24" viewBox="0 0 24 24" fill="none" xmlns="http://www.w3.org/2000/svg">
<path fill-rule="evenodd" clip-rule="evenodd" d="M22 6V13.7121C22 15.5816 20.704 17.1978 18.8541 17.4671C17.0097 17.7356 14.5466 18 12 18C9.45338 18 6.99034 17.7356 5.1459 17.4671C3.29596 17.1978 2 15.5816 2 13.7121V6C2 3.79086 3.79086 2 6 2H18C20.2091 2 22 3.79086 22 6ZM19.8947 21.325C20.2582 21.3831 20.6001 21.1356 20.6583 20.772C20.7165 20.4084 20.4689 20.0665 20.1053 20.0084L16.6076 19.4487C13.3333 18.9248 9.99469 18.9474 6.7277 19.5156L3.88577 20.0099C3.52303 20.0729 3.28011 20.4181 3.34319 20.7809C3.40628 21.1436 3.75148 21.3866 4.11423 21.3235L6.95616 20.8292C10.0779 20.2863 13.2681 20.2647 16.397 20.7653L19.8947 21.325ZM20 5C20 5.55228 19.5523 6 19 6C18.4478 6 18 5.55228 18 5C18 4.44772 18.4478 4 19 4C19.5523 4 20 4.44772 20 5ZM12 4.66663C10.6529 4.66663 9.35583 5.18054 8.39545 6.10325C7.43416 7.02684 6.88892 8.28531 6.88892 9.60344V10.1481H6.66667C5.93029 10.1481 5.33333 10.745 5.33333 11.4814V13.2592C5.33333 13.9956 5.93029 14.5925 6.66667 14.5925H7.62963C7.99782 14.5925 8.2963 14.294 8.2963 13.9258V10.8147C8.2963 10.7046 8.26957 10.6006 8.22225 10.5091V9.60344C8.22225 8.65654 8.61351 7.74276 9.31921 7.06473C10.0258 6.38583 10.9897 5.99996 12 5.99996C13.0104 5.99996 13.9742 6.38583 14.6808 7.06473C15.3865 7.74276 15.7778 8.65654 15.7778 9.60344V10.509C15.7304 10.6006 15.7037 10.7045 15.7037 10.8147V13.9258C15.7037 14.294 16.0022 14.5925 16.3704 14.5925H17.3333C18.0697 14.5925 18.6667 13.9956 18.6667 13.2592V11.4814C18.6667 10.745 18.0697 10.1481 17.3333 10.1481H17.1111V9.60344C17.1111 8.28532 16.5659 7.02684 15.6046 6.10326C14.6442 5.18054 13.3472 4.66663 12 4.66663ZM14.4172 10.8718C14.6124 10.5596 14.5174 10.1483 14.2052 9.95318C13.893 9.75804 13.4817 9.85296 13.2866 10.1652L12 12.2236L10.7135 10.1652C10.5184 9.85296 10.1071 9.75804 9.79485 9.95318C9.48263 10.1483 9.38771 10.5596 9.58285 10.8718L11.4347 13.8348C11.5565 14.0297 11.7702 14.1481 12 14.1481C12.2299 14.1481 12.4435 14.0297 12.5654 13.8348L14.4172 10.8718Z" fill="url(#paint0_linear_1755_2066)"/>
<defs>
<linearGradient id="paint0_linear_1755_2066" x1="0.92856" y1="0.0621726" x2="12.3124" y2="26.726" gradientUnits="userSpaceOnUse">
<stop stop-color="#08EDDF"/>
<stop offset="0.723958" stop-color="#8FEDA6"/>
<stop offset="1" stop-color="#CEED8B"/>
</linearGradient>
</defs>
</svg>
