<svg width="16" height="16" viewBox="0 0 16 16" fill="none" xmlns="http://www.w3.org/2000/svg">
<path fill-rule="evenodd" clip-rule="evenodd" d="M1.32294 4.43405C1.32294 2.71583 2.71583 1.32294 4.43405 1.32294H7.9896H11.5452C13.2634 1.32294 14.6563 2.71583 14.6563 4.43405V7.9896C14.6563 9.70782 13.2634 11.1007 11.5452 11.1007H7.27849L4.27413 13.6044C3.98465 13.8456 3.54516 13.6397 3.54516 13.2629V11.0101C2.26784 10.6858 1.32294 9.5283 1.32294 8.1501V4.43405ZM3.99221 8.10332C3.68538 8.10332 3.43665 7.85459 3.43665 7.54776C3.43665 7.24094 3.68538 6.99221 3.99221 6.99221H7.32554C7.63237 6.99221 7.8811 7.24094 7.8811 7.54776C7.8811 7.85459 7.63237 8.10332 7.32554 8.10332H3.99221ZM3.99221 5.43665C3.68538 5.43665 3.43665 5.18792 3.43665 4.8811C3.43665 4.57427 3.68538 4.32554 3.99221 4.32554H10.2144C10.5213 4.32554 10.77 4.57427 10.77 4.8811C10.77 5.18792 10.5213 5.43665 10.2144 5.43665H3.99221Z" fill="#E6EFF7"/>
</svg>
