<svg width="28" height="28" viewBox="0 0 28 28" fill="none" xmlns="http://www.w3.org/2000/svg">
<path fill-rule="evenodd" clip-rule="evenodd" d="M3.37915 13.0345V9.65518C3.37915 5.39628 6.8444 1.93104 11.1033 1.93104H16.8964C21.1553 1.93104 24.6205 5.39628 24.6205 9.65518V13.0345C24.0876 13.0345 23.655 13.467 23.655 14V14.4509C23.6484 13.3262 23.2922 12.2844 22.6895 11.4287V8.2069C22.6895 7.67587 22.255 7.24138 21.724 7.24138C21.4585 7.24138 21.2171 7.34759 21.0433 7.52621C20.8647 7.7 20.7585 7.94138 20.7585 8.2069V9.7514C20.0343 9.3812 19.2139 9.17239 18.3448 9.17239H9.65511C8.7859 9.17239 7.96546 9.38124 7.24123 9.75149V8.2069C7.24123 7.94138 7.13502 7.7 6.9564 7.52621C6.7826 7.34759 6.54123 7.24138 6.27571 7.24138C5.74467 7.24138 5.31019 7.67587 5.31019 8.2069V11.4289C4.70678 12.2858 4.35046 13.3293 4.34483 14.4556V14C4.34483 13.467 3.91228 13.0345 3.37931 13.0345H3.37915ZM27.9999 14.4828C27.9999 13.6833 27.351 13.0345 26.5516 13.0345V9.65518C26.5516 4.32262 22.229 0 16.8964 0H11.1033C5.77074 0 1.44812 4.32262 1.44812 9.65518V13.0345C0.648743 13.0346 0 13.6834 0 14.4828V19.7931C0 20.5925 0.648828 21.2414 1.44828 21.2414H3.37931C3.91228 21.2414 4.34483 20.8088 4.34483 20.2759V19.8147C4.35646 21.6711 5.86494 23.1724 7.72407 23.1724H20.2758C22.1337 23.1724 23.6414 21.6731 23.655 19.8185V20.2759C23.655 20.8088 24.0876 21.2414 24.6205 21.2414L24.6205 25.1035C24.6205 25.3699 24.4043 25.5862 24.1378 25.5862L19.3102 25.5862C19.3102 25.3197 19.0939 25.1034 18.8274 25.1034H14.9654C14.1659 25.1034 13.5171 25.7523 13.5171 26.5517C13.5171 27.3512 14.1659 28 14.9654 28H18.8274C19.0939 28 19.3102 27.7837 19.3102 27.5173H24.6205C25.687 27.5173 26.5516 26.6526 26.5516 25.5862L26.5516 21.2414C27.351 21.2414 27.9999 20.5926 27.9999 19.7931V14.4828ZM21.7239 19.3103V15.7702C21.7239 13.8218 20.4919 12.165 18.7631 11.5355C18.0448 11.2738 17.2497 11.4375 16.623 11.8749C16.1466 12.2075 15.3312 12.5517 13.9997 12.5517C12.6683 12.5517 11.8529 12.2075 11.3764 11.8749C10.7493 11.4375 9.95422 11.2738 9.23636 11.5355C7.50808 12.1655 6.2756 13.8223 6.2756 15.7702V19.3103C6.2756 20.3767 7.14022 21.2414 8.20663 21.2414H19.7928C20.8593 21.2414 21.7239 20.3767 21.7239 19.3103ZM11.1034 16.4138C11.1034 17.2137 10.563 17.8621 9.89646 17.8621C9.2299 17.8621 8.68956 17.2137 8.68956 16.4138C8.68956 15.6139 9.2299 14.9655 9.89646 14.9655C10.563 14.9655 11.1034 15.6139 11.1034 16.4138ZM18.1034 17.8621C18.7699 17.8621 19.3103 17.2137 19.3103 16.4138C19.3103 15.6139 18.7699 14.9655 18.1034 14.9655C17.4368 14.9655 16.8965 15.6139 16.8965 16.4138C16.8965 17.2137 17.4368 17.8621 18.1034 17.8621ZM12.6328 18.6128C12.8057 18.872 13.2879 19.3104 14 19.3104C14.7121 19.3104 15.1943 18.872 15.3672 18.6128C15.5154 18.3912 15.4555 18.0914 15.2334 17.9432C15.0119 17.795 14.7116 17.8549 14.5639 18.0769L14.5636 18.0773C14.5551 18.0885 14.3624 18.3449 14 18.3449C13.6391 18.3449 13.4454 18.0892 13.4364 18.0773L13.4361 18.0769C13.2884 17.8549 12.9872 17.795 12.7665 17.9432C12.5445 18.0914 12.4846 18.3912 12.6328 18.6128Z" fill="#6FFFCB"/>
</svg>
