<svg width="28" height="28" viewBox="0 0 28 28" fill="none" xmlns="http://www.w3.org/2000/svg">
<path fill-rule="evenodd" clip-rule="evenodd" d="M11.9536 2.7587C12.4745 2.23789 13.181 1.94531 13.9176 1.94531H19.3875C20.1886 1.94531 20.9506 2.2911 21.4781 2.89393L22.2577 3.78494C22.7007 4.2913 22.9449 4.94126 22.9449 5.6141V16.1254C22.9449 16.7995 22.6772 17.446 22.2005 17.9226C21.7329 18.3903 21.1017 18.6569 20.4415 18.6668L20.2228 18.6668V9.33344C20.2228 8.47433 19.5264 7.77789 18.6672 7.77789H7.77855V7.57823C7.77855 7.16569 7.94242 6.77005 8.23412 6.47833L11.4396 3.2726L11.4397 3.27252L11.9536 2.7587ZM24.5005 16.1254C24.5005 17.0524 24.1864 17.9469 23.6171 18.6668H24.112C25.8302 18.6668 27.2231 17.2739 27.2231 15.5557V11.8348C27.2231 10.9802 26.8836 10.1606 26.2794 9.55634L24.5005 7.77747V16.1254ZM20.4516 20.2223H24.112V20.7046C24.112 21.6338 23.7109 22.5177 23.0116 23.1296L21.9121 24.0917C21.3247 24.6057 20.5707 24.889 19.7902 24.889H17.4339L18.9536 23.3694C19.7662 22.5567 20.2228 21.4545 20.2228 20.3052V20.2226H20.4033L20.4516 20.2223ZM0.778687 17.889C0.778687 20.4663 2.86802 22.5557 5.44535 22.5557H5.52772C6.26443 22.5557 6.97097 22.263 7.4919 21.7421L9.01164 20.2223H7.77836C6.91925 20.2223 6.22281 19.5259 6.22281 18.6668V9.33344L6.223 9.30889V7.57823C6.223 6.75316 6.55074 5.96187 7.13413 5.37844L9.40115 3.11122H9.18971C8.03725 3.11122 6.93198 3.56903 6.11707 4.38395L4.98974 5.51128C4.28546 6.21556 3.8898 7.17077 3.8898 8.16678L3.88947 8.1671V15.9446C3.88947 16.3741 3.54125 16.7223 3.11169 16.7223C2.68214 16.7223 2.33392 16.3741 2.33392 15.9446V9.72266L2.04223 10.0143C1.2332 10.8234 0.778687 11.9207 0.778687 13.0648V17.889ZM11.2115 20.2223L8.59185 22.842C7.96726 23.4666 7.17165 23.8808 6.31508 24.0391C6.62582 25.2006 7.68554 26.056 8.94503 26.056H12.9164C13.6532 26.056 14.3597 25.7633 14.8806 25.2424L17.8536 22.2694C18.3746 21.7485 18.6672 21.0419 18.6672 20.3052V20.2223L14.0006 20.2223L13.9988 20.2223H11.2115ZM7.77869 10.1117C7.77869 9.6821 8.12691 9.33388 8.55646 9.33388H17.8898C18.3194 9.33388 18.6676 9.6821 18.6676 10.1117V17.8894C18.6676 18.319 18.3194 18.6672 17.8898 18.6672H8.55646C8.12691 18.6672 7.77869 18.319 7.77869 17.8894V10.1117ZM12.0566 10.8894C11.1219 10.8894 10.3153 11.5453 10.1247 12.4604L9.35075 16.1752C9.26314 16.5958 9.53302 17.0077 9.95355 17.0953C10.3741 17.1829 10.786 16.913 10.8736 16.4925L11.6475 12.7776C11.6879 12.5839 11.8587 12.445 12.0566 12.445C12.2546 12.445 12.4253 12.5839 12.4657 12.7776L13.2396 16.4925C13.3272 16.913 13.7392 17.1829 14.1597 17.0953C14.5802 17.0077 14.8501 16.5958 14.7625 16.1752L13.9886 12.4604C13.7979 11.5453 12.9914 10.8894 12.0566 10.8894ZM17.1122 11.6672C17.1122 11.2377 16.764 10.8894 16.3344 10.8894C15.9048 10.8894 15.5566 11.2377 15.5566 11.6672V16.3339C15.5566 16.7634 15.9048 17.1117 16.3344 17.1117C16.764 17.1117 17.1122 16.7634 17.1122 16.3339V11.6672Z" fill="url(#paint0_linear_1208_10549)"/>
<defs>
<linearGradient id="paint0_linear_1208_10549" x1="-0.637995" y1="-0.471342" x2="12.9839" y2="33.3569" gradientUnits="userSpaceOnUse">
<stop stop-color="#08EDDF"/>
<stop offset="0.723958" stop-color="#8FEDA6"/>
<stop offset="1" stop-color="#CEED8B"/>
</linearGradient>
</defs>
</svg>
