<svg width="24" height="24" viewBox="0 0 24 24" fill="none" xmlns="http://www.w3.org/2000/svg">
    <g id="Main Icons">
        <path id="Union" fill-rule="evenodd" clip-rule="evenodd"
            d="M12.5604 12.0105L12.5604 11.9999C12.5604 10.8307 12.6291 9.71389 12.7538 8.68256C14.4832 7.98086 16.0979 7.52553 17.4284 7.3331C17.488 7.32449 17.5469 7.31643 17.6049 7.30891C17.822 8.48995 17.9609 9.82818 17.9968 11.2594C16.7242 12.3148 15.0422 13.4065 13.0966 14.3753C12.8773 14.4845 12.6588 14.5901 12.4413 14.6921C12.5194 13.8342 12.5609 12.9352 12.5612 12.0105L12.5604 12.0105ZM17.2033 5.86356C15.9624 6.04302 14.5351 6.42166 13.0249 6.97975C13.1648 6.28418 13.3325 5.64823 13.5223 5.0861C13.8171 4.21333 14.153 3.55551 14.493 3.12968C14.8391 2.69628 15.1112 2.59368 15.2832 2.59368C15.4552 2.59368 15.7274 2.69628 16.0735 3.12968C16.4135 3.55551 16.7494 4.21333 17.0442 5.0861C17.126 5.32844 17.2037 5.58449 17.2769 5.85313L17.2033 5.86356ZM18.3356 4.66114C18.4504 5.00119 18.5571 5.363 18.6549 5.74404C19.1162 5.7396 19.5459 5.7733 19.9331 5.85085C20.6918 6.00284 21.423 6.35531 21.7872 7.06782C22.1513 7.78034 22.004 8.57031 21.6769 9.263C21.345 9.96604 20.7717 10.6995 20.0444 11.4226C18.5838 12.8746 16.3774 14.4075 13.7753 15.7033C13.2557 15.962 12.7378 16.2026 12.2253 16.4243C12.0519 17.5053 11.8162 18.4898 11.5295 19.3388C11.2083 20.2898 10.8108 21.1079 10.3365 21.702C9.86814 22.2886 9.24495 22.75 8.4771 22.75C7.70925 22.75 7.08606 22.2886 6.61773 21.702C6.14335 21.1079 5.74591 20.2898 5.42474 19.3388C5.30991 18.9988 5.20326 18.637 5.10551 18.256C4.64598 18.2601 4.21797 18.2264 3.83218 18.1491C3.07344 17.9971 2.34222 17.6447 1.97808 16.9322C1.61394 16.2196 1.7613 15.4297 2.08835 14.737C2.4203 14.0339 2.99359 13.3005 3.72091 12.5774C5.18146 11.1253 7.38791 9.59245 9.99001 8.29669C10.5078 8.03886 11.0239 7.79905 11.5346 7.57795C11.7081 6.49606 11.944 5.51071 12.2309 4.66114C12.5521 3.71012 12.9495 2.89203 13.4239 2.2979C13.8922 1.71134 14.5154 1.24993 15.2832 1.24993C16.0511 1.24993 16.6743 1.71134 17.1426 2.2979C17.617 2.89203 18.0144 3.71012 18.3356 4.66114ZM19.3042 10.0356C19.2398 9.04767 19.1276 8.10612 18.9738 7.23286C19.2251 7.2422 19.4494 7.26719 19.6453 7.30644C20.1931 7.41617 20.3874 7.60583 20.4522 7.7326C20.517 7.85937 20.556 8.12638 20.3199 8.62645C20.1285 9.03178 19.7909 9.50927 19.3042 10.0356ZM11.1999 12.0106C11.1995 13.1769 11.1308 14.2907 11.0063 15.3195C9.27885 16.02 7.66607 16.4746 6.33683 16.6669C6.27561 16.6757 6.21517 16.684 6.15554 16.6917C5.93859 15.5116 5.79967 14.1745 5.76361 12.7446C7.03686 11.688 8.72063 10.5947 10.6687 9.62465C10.8862 9.51633 11.103 9.41154 11.3188 9.3103C11.2405 10.1707 11.1991 11.0725 11.1991 11.9999L11.1991 12.0106L11.1999 12.0106ZM6.56193 18.1364L6.48367 18.1475C6.55676 18.4159 6.63441 18.6717 6.71618 18.9138C7.01092 19.7866 7.34688 20.4444 7.68688 20.8702C8.03292 21.3036 8.3051 21.4062 8.4771 21.4062C8.6491 21.4062 8.92127 21.3036 9.26732 20.8702C9.60732 20.4444 9.94327 19.7866 10.238 18.9138C10.4277 18.3522 10.5952 17.717 10.735 17.0222C9.22682 17.5792 7.80141 17.9572 6.56193 18.1364ZM4.45645 13.9693C4.5209 14.9554 4.63302 15.8952 4.78648 16.7669C4.53727 16.7574 4.31461 16.7325 4.11996 16.6935C3.57219 16.5838 3.37784 16.3942 3.31305 16.2674C3.24826 16.1406 3.20923 15.8736 3.44534 15.3735C3.63612 14.9695 3.97224 14.4937 4.45645 13.9693ZM20.4628 17.6479C20.7223 17.6393 20.9608 17.7903 21.064 18.0286C21.1672 18.2669 21.1142 18.5441 20.9303 18.7276L17.4503 22.1995C17.2031 22.4462 16.8027 22.4457 16.556 22.1985C16.3094 21.9512 16.3098 21.5508 16.5571 21.3042L18.9017 18.9649L16.3243 19.0502C16.0712 19.0586 15.8375 18.9151 15.7304 18.6856C15.6233 18.4561 15.6634 18.1848 15.8325 17.9962L19.0151 14.4446C19.2482 14.1845 19.6479 14.1626 19.908 14.3956C20.1681 14.6287 20.19 15.0285 19.957 15.2886L17.7627 17.7372L20.4628 17.6479Z"
            fill="url(#paint0_linear_3130_13341)" />
    </g>
    <defs>
        <linearGradient id="paint0_linear_3130_13341" x1="23.084" y1="24.905" x2="9.60175"
            y2="-3.82495" gradientUnits="userSpaceOnUse">
            <stop stop-color="#08EDDF" />
            <stop offset="0.723958" stop-color="#8FEDA6" />
            <stop offset="1" stop-color="#CEED8B" />
        </linearGradient>
    </defs>
</svg>