<svg width="28" height="28" viewBox="0 0 28 28" fill="none" xmlns="http://www.w3.org/2000/svg">
<rect x="2.55554" y="2.55566" width="22.8889" height="22.8889" rx="4" fill="url(#paint0_linear_1208_9308)" stroke="url(#paint1_linear_1208_9308)" stroke-width="2"/>
<ellipse cx="13.9999" cy="13.2221" rx="7.77778" ry="7.77778" fill="url(#paint2_linear_1208_9308)"/>
<path d="M21.4154 14.9792C21.5399 14.6428 22.0156 14.6428 22.1401 14.9792L22.5564 16.1042C22.5955 16.21 22.6789 16.2933 22.7846 16.3325L23.9096 16.7488C24.246 16.8732 24.246 17.349 23.9096 17.4735L22.7846 17.8897C22.6789 17.9289 22.5955 18.0123 22.5564 18.118L22.1401 19.243C22.0156 19.5794 21.5399 19.5794 21.4154 19.243L20.9991 18.118C20.96 18.0123 20.8766 17.9289 20.7708 17.8897L19.6458 17.4735C19.3095 17.349 19.3095 16.8732 19.6458 16.7488L20.7708 16.3325C20.8766 16.2933 20.96 16.21 20.9991 16.1042L21.4154 14.9792Z" fill="url(#paint3_linear_1208_9308)"/>
<path d="M5.85985 12.6462C5.98432 12.3098 6.46007 12.3098 6.58454 12.6462L7.00083 13.7712C7.03996 13.877 7.12334 13.9603 7.22909 13.9995L8.35409 14.4158C8.69046 14.5402 8.69046 15.016 8.35409 15.1404L7.22909 15.5567C7.12334 15.5959 7.03996 15.6792 7.00083 15.785L6.58454 16.91C6.46007 17.2464 5.98432 17.2464 5.85985 16.91L5.44356 15.785C5.40443 15.6792 5.32105 15.5959 5.2153 15.5567L4.0903 15.1404C3.75393 15.016 3.75393 14.5402 4.0903 14.4158L5.2153 13.9995C5.32105 13.9603 5.40443 13.877 5.44356 13.7712L5.85985 12.6462Z" fill="url(#paint4_linear_1208_9308)"/>
<path d="M18.3043 4.86788C18.4288 4.53152 18.9045 4.53152 19.029 4.86788L19.4453 5.99289C19.4844 6.09864 19.5678 6.18202 19.6735 6.22115L20.7986 6.63744C21.1349 6.76191 21.1349 7.23766 20.7986 7.36212L19.6735 7.77841C19.5678 7.81755 19.4844 7.90092 19.4453 8.00668L19.029 9.13168C18.9045 9.46805 18.4288 9.46805 18.3043 9.13168L17.888 8.00668C17.8489 7.90092 17.7655 7.81755 17.6598 7.77841L16.5348 7.36212C16.1984 7.23766 16.1984 6.76191 16.5348 6.63744L17.6598 6.22115C17.7655 6.18202 17.8489 6.09864 17.888 5.99289L18.3043 4.86788Z" fill="url(#paint5_linear_1208_9308)"/>
<path d="M8.31135 20.8478C8.57228 20.0128 9.34554 19.4443 10.2203 19.4443L13.9999 19.4443L17.7796 19.4443C18.6543 19.4443 19.4276 20.0128 19.6885 20.8478L19.8164 21.2572C20.0177 21.9011 19.5366 22.5554 18.862 22.5554H9.1379C8.46326 22.5554 7.98219 21.9011 8.18342 21.2572L8.31135 20.8478Z" fill="url(#paint6_linear_1208_9308)"/>
<path opacity="0.8" fill-rule="evenodd" clip-rule="evenodd" d="M14.3951 7.57829C14.3279 7.08581 13.8742 6.74101 13.3817 6.80816C12.8892 6.87532 12.5444 7.329 12.6116 7.82149L12.7268 8.66657C10.9074 8.67556 9.69957 10.559 10.4544 12.2177C10.8621 13.1136 11.7556 13.6887 12.7399 13.6887H13.4117L13.6177 15.1997H13.5862C12.9607 15.1997 12.3766 14.8871 12.0297 14.3667L11.9189 14.2005C11.6432 13.787 11.0844 13.6752 10.6708 13.9509C10.2573 14.2266 10.1455 14.7854 10.4212 15.199L10.532 15.3652C11.2128 16.3863 12.3589 16.9997 13.5862 16.9997H13.8632L14.0116 18.0879C14.0787 18.5804 14.5324 18.9252 15.0249 18.8581C15.5174 18.7909 15.8622 18.3372 15.795 17.8447L15.6791 16.9947C17.2879 16.8952 18.421 15.3287 17.9762 13.7509C17.6657 12.6494 16.6609 11.8887 15.5165 11.8887H14.9828L14.79 10.4746C15.2716 10.5174 15.7252 10.7279 16.0698 11.0725L16.1335 11.1362C16.485 11.4877 17.0548 11.4877 17.4063 11.1362C17.7578 10.7847 17.7578 10.2149 17.4063 9.86345L17.3426 9.79971C16.617 9.07415 15.6329 8.66654 14.6068 8.66654H14.5434L14.3951 7.57829ZM12.9723 10.4665H12.7399C12.2226 10.4665 11.8784 11.0013 12.0927 11.4721C12.2081 11.7258 12.4612 11.8887 12.7399 11.8887H13.1662L12.9723 10.4665ZM15.2283 13.6887L15.4343 15.1997H15.5165C16.0174 15.1997 16.3796 14.7213 16.2437 14.2392C16.152 13.9136 15.8549 13.6887 15.5165 13.6887H15.2283Z" fill="white"/>
<defs>
<linearGradient id="paint0_linear_1208_9308" x1="0.222152" y1="1.07294" x2="15.8256" y2="36.8436" gradientUnits="userSpaceOnUse">
<stop stop-color="#1D0B4F"/>
<stop offset="1" stop-color="#5753FF"/>
</linearGradient>
<linearGradient id="paint1_linear_1208_9308" x1="14" y1="1.55566" x2="14" y2="26.4446" gradientUnits="userSpaceOnUse">
<stop stop-color="#8976FF"/>
<stop offset="1" stop-color="#D3C8FF"/>
</linearGradient>
<linearGradient id="paint2_linear_1208_9308" x1="19.6172" y1="24.0246" x2="7.88524" y2="7.70217" gradientUnits="userSpaceOnUse">
<stop stop-color="#C9C8FF"/>
<stop offset="1" stop-color="#7350FF"/>
</linearGradient>
<linearGradient id="paint3_linear_1208_9308" x1="21.7777" y1="14" x2="21.7777" y2="20.2222" gradientUnits="userSpaceOnUse">
<stop stop-color="#FFF065"/>
<stop offset="1" stop-color="#FFE81A"/>
</linearGradient>
<linearGradient id="paint4_linear_1208_9308" x1="6.2222" y1="11.667" x2="6.2222" y2="17.8892" gradientUnits="userSpaceOnUse">
<stop stop-color="#FFF065"/>
<stop offset="1" stop-color="#FFE81A"/>
</linearGradient>
<linearGradient id="paint5_linear_1208_9308" x1="18.6667" y1="3.88867" x2="18.6667" y2="10.1109" gradientUnits="userSpaceOnUse">
<stop stop-color="#FFF065"/>
<stop offset="1" stop-color="#FFE81A"/>
</linearGradient>
<linearGradient id="paint6_linear_1208_9308" x1="6.99993" y1="20.2928" x2="13.2698" y2="25.9504" gradientUnits="userSpaceOnUse">
<stop stop-color="#FFE1BD"/>
<stop offset="1" stop-color="#FFB13B"/>
</linearGradient>
</defs>
</svg>
