<svg width="28" height="28" viewBox="0 0 28 28" fill="none" xmlns="http://www.w3.org/2000/svg">
<rect x="2.55554" y="2.55566" width="22.8889" height="22.8889" rx="4" fill="url(#paint0_linear_1208_9338)" stroke="url(#paint1_linear_1208_9338)" stroke-width="2"/>
<path fill-rule="evenodd" clip-rule="evenodd" d="M15.6368 17.9195C22.019 15.8802 21.458 7.87726 21.0782 5.19402C21.0104 4.71443 20.5347 4.44367 20.0944 4.6456C17.9595 5.62479 12.4722 9.24378 14.0282 17.3984C14.0793 17.6665 14.3696 17.6003 14.6224 17.7031L15.0967 17.8959C15.2673 17.9652 15.4613 17.9755 15.6368 17.9195ZM15.7666 16.8452C18.8068 14.7185 19.3489 10.2005 19.4437 8.45197C19.4609 8.13463 19.1323 7.96003 18.885 8.15964C17.6878 9.12593 15.058 11.7975 15.1878 16.5436C15.196 16.8439 15.5204 17.0175 15.7666 16.8452Z" fill="url(#paint2_linear_1208_9338)"/>
<path fill-rule="evenodd" clip-rule="evenodd" d="M10.6915 19.2058C4.64447 17.8037 4.55943 10.3713 4.70789 7.86491C4.73443 7.41693 5.15327 7.13106 5.57504 7.28436C7.62021 8.02767 12.844 10.6924 12.0216 18.3398C11.9946 18.5912 11.8376 18.8156 11.6119 18.9295L11.1885 19.1433C11.0362 19.2202 10.8578 19.2443 10.6915 19.2058ZM10.4907 18.2236C7.52303 16.4889 6.68199 12.3577 6.46272 10.7502C6.42292 10.4585 6.71318 10.2725 6.95659 10.4381C8.13493 11.2402 10.7647 13.5091 11.0025 17.9015C11.0175 18.1794 10.7311 18.3641 10.4907 18.2236Z" fill="url(#paint3_linear_1208_9338)"/>
<path fill-rule="evenodd" clip-rule="evenodd" d="M19.4436 8.45243C19.3489 10.201 18.8068 14.719 15.7665 16.8457C15.5203 17.0179 15.1959 16.8444 15.1877 16.5441C15.0579 11.798 17.6877 9.12639 18.8849 8.16009C19.1322 7.96049 19.4608 8.13509 19.4436 8.45243ZM6.46279 10.7507C6.68207 12.3582 7.52311 16.4893 10.4908 18.2241C10.7311 18.3646 11.0176 18.1799 11.0025 17.9019C10.7647 13.5095 8.13501 11.2407 6.95667 10.4386C6.71326 10.2729 6.423 10.4589 6.46279 10.7507Z" fill="url(#paint4_linear_1208_9338)"/>
<path d="M8.74681 22.6337C8.74681 22.6337 9.62278 19.0455 13.6229 17.9737C17.623 16.9019 20.1757 19.5713 20.1757 19.5713" stroke="white" stroke-width="2" stroke-linecap="round" stroke-linejoin="round"/>
<path d="M21.8043 14.2019C21.9288 13.8655 22.4046 13.8655 22.529 14.2019L22.8403 15.043C22.8794 15.1488 22.9628 15.2322 23.0685 15.2713L23.9097 15.5825C24.2461 15.707 24.2461 16.1828 23.9097 16.3072L23.0685 16.6185C22.9628 16.6576 22.8794 16.741 22.8403 16.8467L22.529 17.6879C22.4046 18.0243 21.9288 18.0243 21.8043 17.6879L21.4931 16.8467C21.454 16.741 21.3706 16.6576 21.2648 16.6185L20.4237 16.3072C20.0873 16.1828 20.0873 15.707 20.4237 15.5825L21.2648 15.2713C21.3706 15.2322 21.454 15.1488 21.4931 15.043L21.8043 14.2019Z" fill="url(#paint5_linear_1208_9338)"/>
<defs>
<linearGradient id="paint0_linear_1208_9338" x1="14" y1="1.55566" x2="14" y2="26.4446" gradientUnits="userSpaceOnUse">
<stop stop-color="#B22ED3"/>
<stop offset="1" stop-color="#FC6CFF"/>
</linearGradient>
<linearGradient id="paint1_linear_1208_9338" x1="14" y1="1.55566" x2="14" y2="26.4446" gradientUnits="userSpaceOnUse">
<stop stop-color="#FF77F1"/>
<stop offset="1" stop-color="#FFC2F5"/>
</linearGradient>
<linearGradient id="paint2_linear_1208_9338" x1="17.2181" y1="14.8501" x2="23.0788" y2="24.7835" gradientUnits="userSpaceOnUse">
<stop stop-color="#EFEFEF"/>
<stop offset="1" stop-color="white" stop-opacity="0"/>
</linearGradient>
<linearGradient id="paint3_linear_1208_9338" x1="8.93531" y1="16.4909" x2="4.22821" y2="26.0485" gradientUnits="userSpaceOnUse">
<stop stop-color="#EFEFEF"/>
<stop offset="1" stop-color="white" stop-opacity="0"/>
</linearGradient>
<linearGradient id="paint4_linear_1208_9338" x1="12.0555" y1="7.77825" x2="13.8671" y2="17.2603" gradientUnits="userSpaceOnUse">
<stop stop-color="#FFDCF5"/>
<stop offset="1" stop-color="#FFC0EA" stop-opacity="0.49"/>
</linearGradient>
<linearGradient id="paint5_linear_1208_9338" x1="22.1667" y1="13.2227" x2="22.1667" y2="18.6671" gradientUnits="userSpaceOnUse">
<stop stop-color="#FFF065"/>
<stop offset="1" stop-color="#FFE81A"/>
</linearGradient>
</defs>
</svg>
