<svg width="28" height="28" viewBox="0 0 28 28" fill="none" xmlns="http://www.w3.org/2000/svg">
<rect x="2.55554" y="2.55566" width="22.8889" height="22.8889" rx="4" fill="url(#paint0_linear_1208_9278)" stroke="url(#paint1_linear_1208_9278)" stroke-width="2"/>
<path fill-rule="evenodd" clip-rule="evenodd" d="M9.14731 12.177C8.99951 12.7091 9.31108 13.2603 9.84323 13.4081C10.3754 13.5559 10.9266 13.2443 11.0744 12.7122L11.414 11.4895H12.2202C12.7725 11.4895 13.2202 11.0418 13.2202 10.4895C13.2202 9.93724 12.7725 9.48953 12.2202 9.48953H11.9694L12.3549 8.10168H13.0679C13.6202 8.10168 14.0679 7.65397 14.0679 7.10168C14.0679 6.5494 13.6202 6.10168 13.0679 6.10168H12.9104L13.0186 5.7122C13.1664 5.18006 12.8548 4.62886 12.3227 4.48106C11.7905 4.33326 11.2393 4.64483 11.0915 5.17698L10.8347 6.10168L9.41084 6.10168L9.51901 5.71225C9.66683 5.18012 9.35527 4.62891 8.82314 4.48109C8.291 4.33328 7.73979 4.64483 7.59197 5.17697L7.33511 6.10168H6.29215C5.73987 6.10168 5.29215 6.5494 5.29215 7.10168C5.29215 7.65397 5.73987 8.10168 6.29215 8.10168H6.77955L6.39404 9.48953H5.44446C4.89217 9.48953 4.44446 9.93724 4.44446 10.4895C4.44446 11.0418 4.89217 11.4895 5.44446 11.4895H5.83848L5.64753 12.177C5.49971 12.7091 5.81127 13.2603 6.3434 13.4081C6.87554 13.5559 7.42675 13.2444 7.57457 12.7123L7.91421 11.4895H9.33825L9.14731 12.177ZM9.89374 9.48953L10.2792 8.10168H8.85528L8.46977 9.48953H9.89374Z" fill="url(#paint2_linear_1208_9278)"/>
<path fill-rule="evenodd" clip-rule="evenodd" d="M21.4621 6.41897C21.5704 5.87741 21.2192 5.35058 20.6776 5.24227C20.1361 5.13396 19.6093 5.48517 19.5009 6.02673L19.2241 7.41093C17.3817 7.3549 15.6776 8.41524 14.9192 10.1089L14.8884 10.1778C13.9643 12.2417 15.2293 14.6241 17.4568 15.0145L17.695 15.0563L16.8807 19.1281C15.9866 18.8619 15.2624 18.1599 14.9881 17.2313C14.8316 16.7017 14.2754 16.3991 13.7457 16.5556C13.2161 16.7121 12.9136 17.2683 13.07 17.798C13.5577 19.4486 14.8758 20.6811 16.4874 21.0942L16.2747 22.1579C16.1664 22.6994 16.5176 23.2263 17.0592 23.3346C17.6007 23.4429 18.1276 23.0917 18.2359 22.5501L18.497 21.2446H18.9813C20.7236 21.2446 22.3131 20.2501 23.0749 18.6832C24.1332 16.5068 22.8129 13.9228 20.4293 13.505L20.0579 13.4399L20.8402 9.5285C21.573 9.59486 22.1775 10.1345 22.3245 10.858C22.4344 11.3992 22.9623 11.7488 23.5035 11.6389C24.0448 11.529 24.3944 11.0011 24.2845 10.4598C23.9756 8.93955 22.7481 7.78857 21.2335 7.56216L21.4621 6.41897ZM18.8218 9.42244C17.922 9.51551 17.1234 10.0803 16.7446 10.9262L16.7138 10.9951C16.3222 11.8696 16.8582 12.8791 17.8021 13.0445L18.0874 13.0945L18.8218 9.42244ZM19.6656 15.4017L18.897 19.2446H18.9813C19.9581 19.2446 20.8492 18.6871 21.2763 17.8086C21.7532 16.8278 21.1582 15.6633 20.084 15.475L19.6656 15.4017Z" fill="url(#paint3_linear_1208_9278)"/>
<path d="M5.44446 15.9448L7.00001 18.667L12.4445 13.2225" stroke="url(#paint4_linear_1208_9278)" stroke-width="2" stroke-linecap="round" stroke-linejoin="round"/>
<defs>
<linearGradient id="paint0_linear_1208_9278" x1="14" y1="1.55566" x2="14" y2="26.4446" gradientUnits="userSpaceOnUse">
<stop stop-color="#FF5924"/>
<stop offset="1" stop-color="#FF8D69"/>
</linearGradient>
<linearGradient id="paint1_linear_1208_9278" x1="14" y1="1.55566" x2="14" y2="26.4446" gradientUnits="userSpaceOnUse">
<stop stop-color="#FF8C68"/>
<stop offset="1" stop-color="#FFAF95"/>
</linearGradient>
<linearGradient id="paint2_linear_1208_9278" x1="9.25618" y1="4.44434" x2="9.25618" y2="13.4449" gradientUnits="userSpaceOnUse">
<stop stop-color="#FFCF24"/>
<stop offset="1" stop-color="#FFE791"/>
</linearGradient>
<linearGradient id="paint3_linear_1208_9278" x1="18.6667" y1="5.22266" x2="18.6667" y2="23.3542" gradientUnits="userSpaceOnUse">
<stop stop-color="#EFEFEF"/>
<stop offset="1" stop-color="white"/>
</linearGradient>
<linearGradient id="paint4_linear_1208_9278" x1="8.94446" y1="18.667" x2="8.94446" y2="13.2225" gradientUnits="userSpaceOnUse">
<stop stop-color="#EFEFEF"/>
<stop offset="1" stop-color="white"/>
</linearGradient>
</defs>
</svg>
